<?xml version="1.0" encoding="utf-8"?>
<!-- Generator: Adobe Illustrator 20.0.0, SVG Export Plug-In . SVG Version: 6.00 Build 0)  -->
<svg version="1.1" id="Warstwa_1" xmlns="http://www.w3.org/2000/svg" xmlns:xlink="http://www.w3.org/1999/xlink" x="0px" y="0px"
	 viewBox="0 0 918.4 649.1" style="enable-background:new 0 0 918.4 649.1;" xml:space="preserve">
<style type="text/css">
	.st0{clip-path:url(#SVGID_2_);}
	.st1{fill:#136FB6;}
	.st2{clip-path:url(#SVGID_4_);}
	.st3{clip-path:url(#SVGID_6_);}
	.st4{clip-path:url(#SVGID_8_);}
	.st5{clip-path:url(#SVGID_8_);fill:#136FB6;}
</style>
<g id="Kompozycja_13">
	<g>
		<defs>
			<rect id="SVGID_1_" x="89.3" y="185.9" width="739.7" height="277.3"/>
		</defs>
		<clipPath id="SVGID_2_">
			<use xlink:href="#SVGID_1_"  style="overflow:visible;"/>
		</clipPath>
		<g class="st0">
			<path class="st1" d="M352.3,252.9c-0.7-6.6,0.9-12.4,4.9-17.3c4-4.9,9.2-7.7,15.9-8.4c1.6-0.2,3.4-0.2,5.3,0
				c1.9,0.2,3.8,0.5,5.8,1.1c2,0.5,3.6,1.4,5,2.7c1.4,1.3,2.2,2.8,2.3,4.7l0.5,5.1l-7.7,0.8l-0.3-2.6c-0.2-1.5-1.3-2.6-3.4-3.3
				s-4.3-0.9-6.6-0.6c-4.2,0.4-7.6,2.2-10,5.3c-2.5,3.1-3.5,7-3,11.7c0.5,4.5,2.3,8.1,5.5,11s6.9,4.1,11.1,3.6
				c1.6-0.2,3.2-0.5,4.7-1.1c1.5-0.6,2.7-1.2,3.7-1.9c1-0.7,1.9-1.4,2.6-2.1c0.8-0.7,1.3-1.2,1.7-1.7l0.5-0.7l5.1,5.6
				c-0.2,0.2-0.4,0.5-0.7,0.9c-0.3,0.4-1,1.1-2.1,2.1c-1.1,1-2.3,2-3.5,2.8c-1.2,0.8-2.9,1.7-4.9,2.4c-2,0.8-4.2,1.3-6.4,1.5
				c-6.9,0.7-12.8-1-17.7-5.1C355.8,265.3,353,259.8,352.3,252.9z"/>
			<path class="st1" d="M403.6,271l-3.9-37.4c-0.1-0.9-0.6-1.4-1.6-1.3l-2.6,0.3l-0.7-7l7.8-0.8c2.9-0.3,4.5,1,4.8,3.9l1.2,11.5
				l0.2,2.8l0.1,0c0.7-1.9,1.9-3.5,3.8-5s4.1-2.4,6.8-2.7c7.6-0.8,11.9,3,12.8,11.3l1.3,12.8c0.1,0.9,0.6,1.4,1.6,1.3l2.6-0.3
				l0.7,6.9l-7.8,0.8c-1.5,0.2-2.6-0.1-3.4-0.7c-0.8-0.6-1.2-1.7-1.4-3.2l-1.6-15.1c-0.2-2.2-0.8-3.8-1.7-4.9
				c-0.9-1.1-2.3-1.5-4.2-1.3c-2.1,0.2-3.9,1-5.3,2.5c-1.5,1.4-2.4,3.2-2.8,5.3c-0.2,1.2-0.2,2.6-0.1,4.3l1.6,15.1L403.6,271z"/>
			<path class="st1" d="M446.6,262.4c-3.8-2.9-6-6.8-6.5-11.8c-0.5-5,0.8-9.3,3.9-12.9c3.1-3.6,7.2-5.7,12.3-6.2
				c5.1-0.5,9.5,0.6,13.3,3.5c3.8,2.9,6,6.8,6.5,11.8c0.5,5-0.8,9.3-3.9,12.9c-3.1,3.6-7.2,5.7-12.3,6.2
				C454.8,266.4,450.4,265.2,446.6,262.4z M448.3,249.7c0.3,3,1.5,5.4,3.6,7.1c2.1,1.7,4.5,2.4,7.2,2.1c2.7-0.3,5-1.5,6.7-3.6
				c1.7-2.1,2.4-4.7,2.1-7.7c-0.3-3-1.5-5.3-3.6-7c-2.1-1.7-4.5-2.5-7.2-2.2c-2.7,0.3-4.9,1.5-6.6,3.6
				C448.7,244.2,448,246.7,448.3,249.7z"/>
		</g>
		<g class="st0">
			<path class="st1" d="M485.2,262.4l-2.6-24.5c-0.1-0.9-0.6-1.4-1.6-1.3l-2.6,0.3l-0.7-7l7.5-0.8c2.9-0.3,4.5,0.9,4.8,3.5l0.2,1.9
				l0.1,2.1l0.1,0c0.5-2.5,1.6-4.7,3.3-6.5c1.7-1.8,3.8-2.8,6.2-3.1l1.5,0l0.8,8.1c-0.6,0-1.2,0-2,0.1c-1.9,0.2-3.7,1-5.2,2.3
				c-1.6,1.3-2.6,3.2-3,5.5c-0.3,1.7-0.3,3.5-0.1,5.4l1.4,13L485.2,262.4z"/>
		</g>
		<g class="st0">
			<defs>
				<rect id="SVGID_3_" x="89.3" y="185.9" width="739.7" height="277.3"/>
			</defs>
			<clipPath id="SVGID_4_">
				<use xlink:href="#SVGID_3_"  style="overflow:visible;"/>
			</clipPath>
			<g class="st2">
				<path class="st1" d="M505.7,250.7c-0.1-1.4,0-2.7,0.4-4c0.4-1.2,1-2.2,1.8-3.1c0.8-0.8,1.8-1.6,2.9-2.3c1.2-0.7,2.3-1.3,3.4-1.7
					c1.1-0.4,2.4-0.8,3.7-1.1c1.4-0.3,2.5-0.5,3.4-0.7c0.9-0.1,1.9-0.3,2.8-0.4l0.9-0.1l0-0.3c-0.2-2.3-0.9-3.9-2-4.8
					c-1.1-0.9-2.7-1.2-4.8-1c-1,0.1-2,0.4-2.9,0.8c-0.9,0.4-1.3,1-1.2,1.9l0.2,1.7l-7.6,0.8l-0.4-3.5c-0.1-1.4,0.2-2.7,0.9-3.7
					c0.8-1.1,1.9-1.9,3.3-2.5c1.4-0.6,2.7-1,3.8-1.3c1.1-0.3,2.2-0.5,3.4-0.6c9.5-1,14.6,2.9,15.6,11.6l1.3,12.2
					c0.1,0.9,0.6,1.4,1.6,1.3l2.6-0.3l0.7,6.9c-2.2,2.3-3.2,4.1-3.1,5.4c0.1,0.6,0.4,1.1,1,1.4c0.6,0.3,1.1,0.5,1.7,0.5l0.8,0
					l-1.3,6.3c-0.2,0-0.5,0-0.9,0c-0.4,0-1-0.1-2-0.3c-0.9-0.2-1.8-0.4-2.5-0.8c-0.7-0.3-1.4-0.9-2.1-1.6c-0.7-0.7-1-1.6-1.2-2.6
					c-0.3-2.5,0.9-5,3.5-7.5l0-0.1l-1.6,0.2c-1.3,0.1-2.4-0.1-3.1-0.8s-1.1-1.4-1.2-2.3l0-0.3l0-1.3l-0.1,0
					c-0.1,0.2-0.2,0.4-0.3,0.7s-0.4,0.8-0.9,1.5c-0.5,0.7-1,1.4-1.7,2c-0.6,0.6-1.5,1.2-2.7,1.7s-2.5,0.9-3.9,1
					c-3.1,0.3-5.8-0.3-8.2-2C507.4,256.2,506,253.8,505.7,250.7z M513.9,249.5c0.1,1.2,0.7,2.1,1.6,2.9c0.9,0.7,2.2,1,3.8,0.9
					c2.1-0.2,3.8-1.3,5-3.3c1.2-2,1.8-4,1.5-6.1l-0.1-0.8l-1.4,0.1C517.1,243.9,513.6,246,513.9,249.5z"/>
				<path class="st1" d="M540.9,239.1c-0.5-4.7,0.4-8.8,2.6-12.1s5.7-5.3,10.2-5.8c1.4-0.1,2.8-0.1,4,0.1c1.3,0.2,2.3,0.5,3,0.9
					c0.8,0.4,1.4,0.8,2,1.2c0.6,0.4,1,0.7,1.2,1l0.4,0.5l0.1,0l-0.1-0.8c-0.1-0.8,0.1-1.6,0.7-2.2c0.5-0.7,1.4-1.1,2.6-1.2l7.6-0.8
					l0.7,7l-2.5,0.3c-0.9,0.1-1.4,0.6-1.3,1.4l2.4,22.6c0.3,2.7,0,5.1-0.7,7.3c-0.8,2.2-1.9,3.9-3.5,5.3c-1.6,1.4-3.3,2.4-5.2,3.2
					c-1.9,0.8-4,1.3-6.3,1.5c-4.2,0.4-8.2-0.1-12-1.6l1.8-6.7c2.9,1.2,6,1.6,9.3,1.2c2.7-0.3,4.9-1.2,6.5-2.6s2.3-3.6,2-6.4
					l-0.2-1.5l-0.1-1.7l-0.1,0c-1.7,3-4.6,4.8-8.7,5.2c-4.6,0.5-8.3-0.7-11.3-3.7C543.2,247.6,541.4,243.8,540.9,239.1z
					 M558.4,247.1c2.2-0.2,4-1.2,5.3-2.8c1.3-1.7,1.7-4.2,1.4-7.6c-0.7-6.3-3.7-9.2-9.2-8.6c-2.4,0.3-4.3,1.3-5.4,3
					c-1.2,1.8-1.6,4.1-1.3,6.9c0.3,3,1.3,5.3,2.9,7C553.8,246.7,555.9,247.4,558.4,247.1z"/>
				<path class="st1" d="M585.3,247.5l-2.1-20.1c-0.1-0.9-0.6-1.4-1.6-1.3l-2.6,0.3l-0.7-7l7.8-0.8c1.5-0.2,2.6,0.1,3.4,0.7
					s1.2,1.7,1.4,3.2l2.1,20.2c0.1,0.9,0.6,1.4,1.6,1.3l2.6-0.3l0.7,6.9l-7.8,0.8c-1.5,0.2-2.6-0.1-3.4-0.7
					C585.9,250.1,585.4,249,585.3,247.5z M582.1,213.6l-0.8-7.5l7.1-0.7l0.8,7.5L582.1,213.6z"/>
				<path class="st1" d="M599.7,233.8c-0.5-5.1,0.6-9.4,3.3-12.9c2.8-3.5,6.6-5.5,11.5-6.1c4.6-0.5,8.3,0.6,11.2,3.3
					c2.9,2.7,4.6,6.3,5,10.8l0.1,3l-22.7,2.4c0.6,2.8,1.9,4.8,3.9,6.2c2,1.4,4.3,1.9,6.9,1.6c1.5-0.2,3.1-0.6,4.5-1.4
					c1.5-0.8,2.6-1.5,3.2-2.2l1.1-1.1l4,5.3c-0.1,0.1-0.3,0.3-0.5,0.6c-0.2,0.3-0.8,0.7-1.6,1.4c-0.8,0.7-1.7,1.2-2.6,1.8
					c-0.9,0.5-2.1,1.1-3.5,1.6c-1.4,0.5-2.9,0.9-4.5,1c-5.3,0.6-9.7-0.7-13.3-3.7C602.3,242.5,600.2,238.6,599.7,233.8z
					 M607.9,228.6l14.2-1.5c-0.2-1.9-1-3.5-2.3-4.6c-1.3-1.1-2.8-1.6-4.5-1.4c-2.1,0.2-3.8,1-5.1,2.3
					C608.9,224.8,608.2,226.5,607.9,228.6z"/>
				<path class="st1" d="M646.5,245.5L636,221.6c-0.3-0.7-1-1.1-1.9-1l-0.9,0.1l-0.7-7l5.6-0.6c1.4-0.1,2.4,0,3.2,0.4
					c0.8,0.4,1.4,1.2,1.8,2.5l6.8,17.7l1,3.4l0.1,0c0-1.2,0.2-2.4,0.4-3.6l3.8-22.1l7.2-0.8l8.4,20.8l1.1,3.4l0.1,0
					c0-1.2,0.1-2.4,0.3-3.5l2.9-18.7c0.2-1.3,0.6-2.2,1.2-2.8c0.7-0.6,1.7-0.9,3-1.1l5.6-0.6l0.7,7l-0.9,0.1
					c-0.9,0.1-1.5,0.5-1.7,1.4l-5.3,25.6l-9.2,1l-7.6-18.2l-1.1-3.5l-0.1,0c-0.1,1.2-0.2,2.4-0.5,3.6l-3.6,19.3L646.5,245.5z"/>
			</g>
		</g>
		<g class="st0">
		</g>
		<g class="st0">
			<path class="st1" d="M369.3,352.8l-3.9-37.2c-0.1-0.9-0.6-1.4-1.6-1.3l-2.8,0.3l-0.8-7.2l8.2-0.9c1.5-0.2,2.7,0.1,3.5,0.7
				c0.8,0.6,1.2,1.7,1.4,3.2l1.5,14.2l3.2-0.3c1.9-0.2,3.1-0.8,3.5-1.9l7.4-18.1l9.3-1l-8.3,19.9c-0.3,0.8-0.7,1.5-1.1,2.1
				c-0.4,0.6-0.7,1-1,1.2l-0.4,0.3l0,0.1c1.1,0.1,2.2,1.1,3.3,2.8l7,11.1c0.6,0.9,1.7,1.3,3.4,1.1l1.2-0.1l0.8,7.2l-4.8,0.5
				c-1.8,0.2-3.2,0.1-4.1-0.2c-0.9-0.3-1.8-1.2-2.7-2.5l-9.1-14.2c-0.4-0.7-0.9-1-1.6-1.1c-0.6-0.1-1.5-0.1-2.6,0l-2.7,0.3l2.1,20
				L369.3,352.8z"/>
			<path class="st1" d="M409.6,336.7l-1.3-12.8c-0.1-0.9-0.6-1.4-1.6-1.3l-2.6,0.3l-0.7-7l7.8-0.8c1.5-0.2,2.6,0.1,3.4,0.7
				c0.8,0.6,1.2,1.7,1.4,3.2l1.6,15.1c0.2,2.2,0.8,3.8,1.7,4.9c0.9,1.1,2.3,1.5,4.1,1.3c2.8-0.3,5-1.6,6.4-3.9c1.4-2.3,2-5,1.7-8.1
				l-1.6-15.1l8.2-0.9l2.6,24.6c0.1,0.9,0.6,1.4,1.6,1.3l2.6-0.3l0.7,6.9l-7.5,0.8c-2.9,0.3-4.4-0.8-4.7-3.2l-0.1-0.9L433,340
				l-0.1,0c-0.7,2-1.9,3.7-3.8,5.3s-4.2,2.5-6.8,2.7C414.7,348.8,410.4,345.1,409.6,336.7z"/>
		</g>
		<g class="st0">
			<path class="st1" d="M447.9,350.9c0.4,0,0.9,0,1.4,0c0.7-0.1,1.4-0.2,2-0.4c0.6-0.2,1.3-0.5,2-1c0.7-0.4,1.2-1.1,1.6-2.1
				c0.4-0.9,0.5-2,0.3-3.3l-2.6-24.8c-0.1-0.9-0.6-1.4-1.6-1.3l-2.6,0.3l-0.7-7l7.8-0.8c1.5-0.2,2.7,0.1,3.5,0.7
				c0.8,0.6,1.2,1.7,1.4,3.2l3.1,29.5c0.2,2.1,0.1,4-0.5,5.6s-1.2,2.9-2.1,3.9c-0.9,0.9-2,1.7-3.2,2.4c-1.3,0.7-2.4,1.1-3.5,1.4
				c-1,0.3-2.1,0.4-3.2,0.6l-2.5,0.1L447.9,350.9z M451.6,305.5l-0.8-7.5l7.2-0.8l0.8,7.5L451.6,305.5z"/>
		</g>
		<g class="st0">
			<path class="st1" d="M471,332.5c-0.2-1.6,0-3.1,0.6-4.5c0.6-1.4,1.4-2.5,2.5-3.4s2.4-1.7,3.6-2.4c1.3-0.7,2.7-1.2,4.3-1.6
				c1.6-0.4,2.9-0.7,4-0.9c1.1-0.2,2.2-0.4,3.3-0.5l1-0.1l0-0.3c-0.2-2.3-0.9-3.9-2-4.8c-1.1-0.9-2.7-1.2-4.8-1
				c-1,0.1-2,0.4-2.9,0.8c-0.9,0.4-1.3,1-1.2,1.9l0.2,1.7l-7.6,0.8l-0.4-3.5c-0.1-1.4,0.2-2.7,0.9-3.7c0.8-1.1,1.9-1.9,3.3-2.5
				c1.4-0.6,2.7-1,3.8-1.2c1.1-0.3,2.2-0.5,3.4-0.6c9.5-1,14.6,2.9,15.6,11.6l1.3,12.2c0.1,0.9,0.6,1.4,1.6,1.3l2.6-0.3l0.7,6.9
				l-7.3,0.8c-1.4,0.1-2.5-0.1-3.3-0.7c-0.8-0.6-1.2-1.4-1.3-2.5l-0.1-1.4l-0.1,0c-0.1,0.2-0.2,0.4-0.3,0.7
				c-0.1,0.3-0.4,0.8-0.9,1.5c-0.5,0.7-1.1,1.4-1.7,2s-1.5,1.1-2.7,1.7c-1.2,0.5-2.4,0.9-3.8,1c-3.1,0.3-5.8-0.3-8.2-1.9
				C472.7,338.1,471.4,335.7,471,332.5z M479.2,331.3c0.1,1.2,0.7,2.1,1.6,2.9c0.9,0.7,2.2,1,3.8,0.9c2.1-0.2,3.8-1.3,5-3.3
				c1.2-2,1.8-4,1.5-6.1l-0.1-0.8l-1.4,0.1C482.4,325.8,478.9,327.9,479.2,331.3z"/>
		</g>
		<g class="st0">
			<path class="st1" d="M518.4,337.2l-10.5-23.9c-0.3-0.7-1-1.1-1.9-1l-0.9,0.1l-0.7-7l5.6-0.6c1.4-0.1,2.4,0,3.2,0.4
				c0.8,0.4,1.4,1.2,1.8,2.5l6.8,17.7l1,3.4l0.1,0c0.1-1.2,0.2-2.4,0.4-3.6l3.8-22.1l7.2-0.8l8.4,20.8l1.1,3.4l0.1,0
				c0-1.2,0.1-2.4,0.3-3.5l2.9-18.7c0.2-1.3,0.6-2.2,1.2-2.8c0.7-0.6,1.7-0.9,3-1.1l5.6-0.6l0.7,7l-0.9,0.1
				c-0.9,0.1-1.5,0.5-1.7,1.3l-5.3,25.6l-9.2,1l-7.6-18.2l-1.1-3.5l-0.1,0c-0.1,1.2-0.2,2.4-0.5,3.6l-3.6,19.3L518.4,337.2z"/>
			<path class="st1" d="M563.9,327.2l3.3-5.8c0.3,0.3,0.8,0.7,1.5,1.2c0.6,0.5,1.8,1.1,3.6,1.8s3.5,1,5.2,0.8
				c1.3-0.1,2.4-0.5,3.1-1.1c0.8-0.6,1.1-1.5,1-2.5c-0.1-0.8-0.8-1.5-2-2.1c-1.3-0.6-2.8-1.1-4.5-1.6c-1.8-0.5-3.6-1-5.4-1.7
				c-1.8-0.7-3.4-1.7-4.7-3c-1.3-1.4-2.1-3-2.3-5c-0.3-3.1,0.6-5.6,2.9-7.5c2.3-1.9,5.2-3,8.9-3.4c1.2-0.1,2.5-0.2,3.7-0.1
				c1.2,0.1,2.5,0.3,3.8,0.7c1.3,0.4,2.4,1,3.2,1.8c0.9,0.9,1.4,1.9,1.5,3.2l0.4,3.4l-7.2,0.8l-0.2-1.6c-0.1-0.7-0.6-1.3-1.5-1.6
				c-0.9-0.3-1.9-0.4-2.9-0.3c-1.5,0.2-2.7,0.5-3.5,1.1c-0.8,0.6-1.2,1.4-1.1,2.3c0.1,0.9,0.8,1.7,2.1,2.3c1.3,0.6,2.8,1.1,4.6,1.5
				c1.8,0.4,3.6,0.9,5.3,1.5s3.3,1.6,4.7,2.9c1.4,1.3,2.1,3,2.4,5c0.3,3.1-0.6,5.6-2.8,7.7c-2.2,2.1-5.1,3.3-8.8,3.7
				c-1.7,0.2-3.3,0.1-4.9-0.1c-1.6-0.2-3-0.6-4-1c-1.1-0.5-2-0.9-2.9-1.4s-1.4-0.9-1.8-1.3L563.9,327.2z"/>
		</g>
		<g class="st0">
			<path class="st1" d="M599.8,328.6l-3.9-37.4c-0.1-0.9-0.6-1.4-1.6-1.3l-2.6,0.3l-0.7-7l7.8-0.8c1.6-0.2,2.7,0,3.5,0.4
				c0.7,0.4,1.2,1.4,1.3,2.9l2.2,20.8l2.4-0.3c1.5-0.2,2.5-0.7,3-1.5l5.6-11.1l9.1-1l-7,13.2c-0.4,0.6-0.7,1.2-1.1,1.7
				c-0.4,0.5-0.6,0.8-0.8,0.9l-0.2,0.2l0,0.1c0.8,0.2,1.7,1,2.6,2.3l4.5,6.7c0.5,0.8,1.5,1.1,2.8,0.9l2.2-0.2l0.7,6.9l-6.1,0.6
				c-1.4,0.1-2.5,0.1-3.2-0.2c-0.7-0.3-1.5-1-2.2-2.1l-6.6-9.7c-0.6-0.8-1.6-1.1-3.2-0.9l-1.8,0.2l1.5,14.4L599.8,328.6z"/>
		</g>
		<g class="st0">
			<path class="st1" d="M638.5,320.4c-3.8-2.9-6-6.8-6.5-11.8c-0.5-5,0.8-9.3,3.9-12.9c3.1-3.6,7.2-5.7,12.3-6.2
				c5.1-0.5,9.5,0.6,13.3,3.5c3.8,2.9,6,6.8,6.5,11.8c0.5,5-0.8,9.3-3.9,12.9c-3.1,3.6-7.2,5.7-12.3,6.2
				C646.7,324.4,642.3,323.3,638.5,320.4z M640.3,307.7c0.3,3,1.5,5.4,3.6,7.1c2.1,1.7,4.5,2.4,7.2,2.1c2.7-0.3,5-1.5,6.7-3.6
				c1.7-2.1,2.4-4.7,2.1-7.7c-0.3-3-1.5-5.3-3.6-7c-2.1-1.7-4.5-2.5-7.2-2.2c-2.7,0.3-4.9,1.5-6.6,3.6
				C640.7,302.2,640,304.8,640.3,307.7z"/>
		</g>
		<g class="st0">
			<path class="st1" d="M676.3,305.6l-0.8-7.2l19.4-2l0.8,7.2L676.3,305.6z"/>
		</g>
		<g class="st0">
		</g>
		<g class="st0">
			<path class="st1" d="M351.9,418.5l-0.7-6.8l18.6-2l0.7,6.8L351.9,418.5z"/>
		</g>
		<g class="st0">
			<path class="st1" d="M380.4,429.9l-4.1-38.6l-4.2,0.4l-0.8-7.2l20.9-2.2c4.3-0.5,7.9,0.6,10.9,3c3,2.5,4.7,5.9,5.2,10.3
				c0.5,4.4-0.5,8.2-2.9,11.3c-2.4,3.1-5.8,4.9-10.1,5.3l-8.3,0.9l1.7,15.8L380.4,429.9z M386.4,406l6.8-0.7
				c2.4-0.2,4.1-1.2,5.3-2.7c1.2-1.6,1.6-3.5,1.4-5.9c-0.2-2.4-1.1-4.2-2.5-5.4c-1.4-1.3-3.3-1.8-5.6-1.5l-6.9,0.7L386.4,406z"/>
		</g>
		<g class="st0">
			<defs>
				<rect id="SVGID_5_" x="89.3" y="185.9" width="739.7" height="277.3"/>
			</defs>
			<clipPath id="SVGID_6_">
				<use xlink:href="#SVGID_5_"  style="overflow:visible;"/>
			</clipPath>
			<g class="st3">
				<path class="st1" d="M418.9,421.7c-3.8-2.9-6-6.8-6.5-11.8c-0.5-5,0.8-9.3,3.9-12.9c3.1-3.6,7.2-5.7,12.3-6.2
					c5.1-0.5,9.5,0.6,13.3,3.5c3.8,2.9,6,6.8,6.5,11.8c0.5,5-0.8,9.3-3.9,12.9c-3.1,3.6-7.2,5.7-12.3,6.2
					C427.2,425.7,422.7,424.5,418.9,421.7z M420.7,409c0.3,3,1.5,5.4,3.6,7.1c2.1,1.7,4.5,2.4,7.2,2.1c2.8-0.3,5-1.5,6.7-3.6
					c1.7-2.1,2.4-4.7,2.1-7.7c-0.3-3-1.5-5.3-3.6-7c-2.1-1.7-4.5-2.5-7.2-2.2c-2.7,0.3-4.9,1.5-6.6,3.6
					C421.1,403.5,420.4,406,420.7,409z"/>
				<path class="st1" d="M457.9,421.7l-2.6-24.5c-0.1-0.9-0.6-1.4-1.6-1.3l-2.6,0.3l-0.7-7l7.5-0.8c2.9-0.3,4.4,0.8,4.7,3.2l0.1,1
					l0.1,1.4l0.1,0c0.7-1.9,1.9-3.6,3.7-5.2s3.9-2.5,6.3-2.7c5-0.5,8.4,1.4,10.3,5.8l0.1,0c0.7-2,2.1-3.7,3.9-5.3
					c1.9-1.5,4.1-2.4,6.6-2.7c7.2-0.8,11.2,3,12.1,11.4l1.3,12.8c0.1,0.9,0.6,1.4,1.6,1.3l2.5-0.3l0.7,6.9l-7.7,0.8
					c-1.5,0.2-2.7-0.1-3.5-0.7c-0.8-0.6-1.2-1.7-1.4-3.2l-1.6-15.2c-0.2-2.1-0.7-3.7-1.5-4.8s-2-1.5-3.8-1.3
					c-1.9,0.2-3.5,1.1-4.8,2.7c-1.3,1.6-2,3.5-2.3,5.7c-0.2,1.2-0.2,2.6-0.1,4.2l1.5,14.4l-8.2,0.9l-2.1-19.6
					c-0.2-2.1-0.7-3.7-1.4-4.8c-0.7-1.1-2-1.5-3.8-1.3c-2,0.2-3.6,1.1-4.8,2.7c-1.2,1.6-2,3.5-2.3,5.8c-0.2,1.4-0.2,2.8-0.1,4.2
					l1.5,14.4L457.9,421.7z"/>
				<path class="st1" d="M520.5,411c-3.8-2.9-6-6.8-6.5-11.8c-0.5-5,0.8-9.3,3.9-12.9c3.1-3.6,7.2-5.7,12.3-6.2
					c5.1-0.5,9.5,0.6,13.3,3.5c3.8,2.9,6,6.8,6.5,11.8c0.5,5-0.8,9.3-3.9,12.9c-3.1,3.6-7.2,5.7-12.3,6.2
					C528.8,415,524.3,413.9,520.5,411z M522.3,398.3c0.3,3,1.5,5.4,3.6,7.1c2.1,1.7,4.5,2.4,7.2,2.1c2.7-0.3,5-1.5,6.7-3.6
					c1.7-2.1,2.4-4.7,2.1-7.7c-0.3-3-1.5-5.3-3.6-7c-2.1-1.7-4.5-2.5-7.2-2.2c-2.7,0.3-4.9,1.5-6.6,3.6
					C522.7,392.8,522,395.4,522.3,398.3z"/>
				<path class="st1" d="M559.5,411l-2.6-24.5c-0.1-0.9-0.6-1.4-1.6-1.3l-2.6,0.3l-0.7-7l7.5-0.8c2.9-0.3,4.5,0.9,4.8,3.5l0.2,1.9
					l0.1,2.1l0.1,0c0.5-2.5,1.6-4.7,3.3-6.5c1.7-1.8,3.8-2.8,6.2-3.1l1.5,0l0.8,8.1c-0.6,0-1.2,0-2,0.1c-1.9,0.2-3.7,1-5.2,2.3
					c-1.6,1.3-2.6,3.2-3,5.5c-0.3,1.7-0.3,3.5-0.1,5.4l1.4,13L559.5,411z"/>
				<path class="st1" d="M582.1,403.5l3.3-5.8c0.3,0.3,0.8,0.7,1.5,1.2c0.6,0.5,1.8,1.1,3.6,1.8c1.8,0.7,3.5,1,5.2,0.8
					c1.3-0.1,2.4-0.5,3.1-1.1c0.8-0.6,1.1-1.5,1-2.5c-0.1-0.8-0.8-1.5-2-2.1s-2.8-1.1-4.5-1.6c-1.8-0.5-3.6-1-5.4-1.7
					c-1.8-0.7-3.4-1.7-4.7-3c-1.3-1.4-2.1-3-2.3-5c-0.3-3.1,0.6-5.6,2.9-7.5c2.3-1.9,5.2-3,8.9-3.4c1.2-0.1,2.5-0.2,3.7-0.1
					c1.2,0.1,2.5,0.3,3.8,0.7c1.3,0.4,2.4,1,3.2,1.8c0.9,0.9,1.4,1.9,1.5,3.2l0.4,3.4l-7.2,0.8l-0.2-1.6c-0.1-0.7-0.6-1.3-1.5-1.6
					c-0.9-0.3-1.9-0.4-2.9-0.3c-1.5,0.2-2.7,0.5-3.5,1.1c-0.8,0.6-1.2,1.4-1.1,2.3s0.8,1.7,2.1,2.3c1.3,0.6,2.8,1.1,4.6,1.5
					s3.6,0.9,5.3,1.5c1.8,0.6,3.3,1.6,4.7,2.9c1.4,1.3,2.1,3,2.4,5c0.3,3.1-0.6,5.6-2.8,7.7c-2.2,2.1-5.1,3.3-8.8,3.7
					c-1.7,0.2-3.3,0.1-4.9-0.1c-1.6-0.2-3-0.6-4-1c-1.1-0.5-2-0.9-2.9-1.4c-0.8-0.5-1.4-0.9-1.8-1.3L582.1,403.5z"/>
			</g>
		</g>
		<g class="st0">
			<path class="st1" d="M616.6,405l-3.9-37.4c-0.1-0.9-0.6-1.4-1.6-1.3l-2.6,0.3l-0.7-7l7.8-0.8c1.6-0.2,2.7,0,3.5,0.4
				c0.7,0.4,1.2,1.4,1.3,2.9l2.2,20.8l2.4-0.3c1.5-0.2,2.5-0.7,3-1.5l5.6-11.1l9.1-1l-7,13.2c-0.4,0.6-0.7,1.2-1.1,1.7
				c-0.4,0.5-0.6,0.8-0.8,0.9l-0.2,0.2l0,0.1c0.8,0.2,1.7,1,2.6,2.3l4.5,6.7c0.5,0.8,1.5,1.1,2.8,0.9l2.2-0.2l0.7,6.9l-6.1,0.6
				c-1.4,0.1-2.5,0.1-3.2-0.2c-0.7-0.3-1.5-1-2.2-2.1l-6.6-9.7c-0.6-0.8-1.6-1.1-3.2-0.9l-1.8,0.2l1.5,14.4L616.6,405z"/>
		</g>
		<g class="st0">
			<path class="st1" d="M648.4,392.1c-0.2-1.6,0-3.1,0.6-4.5c0.6-1.4,1.4-2.5,2.5-3.4c1.1-0.9,2.4-1.7,3.6-2.4
				c1.3-0.7,2.7-1.2,4.3-1.6s2.9-0.7,4-0.9c1.1-0.2,2.2-0.4,3.3-0.5l1-0.1l0-0.3c-0.2-2.3-0.9-3.9-2-4.8c-1.1-0.9-2.7-1.2-4.8-1
				c-1,0.1-2,0.4-2.9,0.8s-1.3,1-1.2,1.9l0.2,1.7l-7.6,0.8l-0.4-3.5c-0.1-1.4,0.2-2.7,0.9-3.7c0.8-1.1,1.9-1.9,3.3-2.5
				c1.4-0.6,2.7-1,3.8-1.2c1.1-0.3,2.2-0.5,3.4-0.6c9.5-1,14.6,2.9,15.6,11.6l1.3,12.2c0.1,0.9,0.6,1.4,1.6,1.3l2.6-0.3l0.7,6.9
				l-7.3,0.8c-1.4,0.1-2.5-0.1-3.3-0.7s-1.2-1.4-1.3-2.5l-0.1-1.4l-0.1,0c-0.1,0.2-0.2,0.4-0.3,0.7s-0.4,0.8-0.9,1.5
				c-0.5,0.7-1,1.4-1.7,2c-0.6,0.6-1.5,1.2-2.7,1.7c-1.2,0.5-2.4,0.9-3.8,1c-3.1,0.3-5.8-0.3-8.2-1.9
				C650.1,397.6,648.7,395.2,648.4,392.1z M656.6,390.9c0.1,1.2,0.7,2.1,1.6,2.9c0.9,0.7,2.2,1,3.8,0.9c2.1-0.2,3.8-1.3,5-3.3
				c1.2-2,1.8-4,1.5-6.1l-0.1-0.8l-1.4,0.1C659.7,385.3,656.2,387.4,656.6,390.9z"/>
		</g>
		<g class="st0">
			<defs>
				<rect id="SVGID_7_" x="89.3" y="185.9" width="739.7" height="277.3"/>
			</defs>
			<clipPath id="SVGID_8_">
				<use xlink:href="#SVGID_7_"  style="overflow:visible;"/>
			</clipPath>
			<g class="st4">
				<path class="st1" d="M701.8,396.1l-0.6-5.4l17.5-31.3c0.5-0.8,1-1.6,1.5-2.4c0.5-0.7,0.9-1.3,1.2-1.6l0.4-0.5l0-0.1
					c-0.9,0.2-2,0.3-3.5,0.5l-11.1,1.2c-0.9,0.1-1.4,0.6-1.3,1.6l0.3,2.8l-7.7,0.8l-0.7-7c-0.2-1.5,0.1-2.6,0.7-3.4
					c0.6-0.8,1.7-1.3,3.2-1.4l29.7-3.1l0.6,5.3l-17.5,31.4c-0.5,0.8-1,1.6-1.5,2.4s-0.9,1.3-1.2,1.6l-0.4,0.5l0,0.1
					c0.9-0.2,2-0.3,3.5-0.5l12.5-1.3c0.9-0.1,1.4-0.6,1.3-1.6l-0.3-2.8l7.6-0.8l0.7,7c0.2,1.5-0.1,2.7-0.7,3.5
					c-0.6,0.8-1.7,1.2-3.2,1.4L701.8,396.1z"/>
				<path class="st1" d="M745,391.5l-3.9-37.2c-0.1-0.9-0.6-1.4-1.6-1.3l-2.8,0.3l-0.8-7.2l8.2-0.9c1.5-0.2,2.7,0.1,3.5,0.7
					c0.8,0.6,1.2,1.7,1.4,3.2l1.6,15l20.2-2.1l-1.6-15c-0.3-2.9,1-4.5,3.9-4.8l8.2-0.9l0.8,7.2l-2.8,0.3c-0.9,0.1-1.4,0.6-1.3,1.6
					l3.9,37.2l-8.4,0.9l-2-19.2l-20.2,2.1l2,19.2L745,391.5z"/>
				<path class="st1" d="M794.9,386.3l-4.1-38.6l-4.2,0.4l-0.8-7.2l20.9-2.2c4.3-0.5,7.9,0.6,10.9,3c3,2.5,4.7,5.9,5.2,10.3
					c0.5,4.4-0.5,8.2-2.9,11.3c-2.4,3.1-5.8,4.9-10.1,5.3l-8.3,0.9l1.7,15.8L794.9,386.3z M800.9,362.4l6.8-0.7
					c2.4-0.2,4.1-1.2,5.3-2.7s1.6-3.5,1.4-5.9c-0.2-2.4-1.1-4.2-2.5-5.4c-1.4-1.3-3.3-1.8-5.6-1.5l-6.9,0.7L800.9,362.4z"/>
			</g>
			<path class="st5" d="M245.8,308.3c-5.7,0-10.3-4.6-10.3-10.3c0-1.7,0.4-3.4,1.2-4.8c-8.7-5.4-19-8.5-30-8.5
				c-31.5,0-57.1,25.6-57.1,57.1c0,31.5,25.6,57.1,57.1,57.1c31.5,0,57.1-25.6,57.1-57.1c0-13.3-4.5-25.5-12.1-35.2
				C249.9,307.6,247.9,308.3,245.8,308.3 M207.6,375.1c-17.2,0-31.2-13.9-31.2-31.2c0-17.2,13.9-31.2,31.2-31.2
				c17.2,0,31.2,13.9,31.2,31.2C238.8,361.2,224.8,375.1,207.6,375.1"/>
			<path class="st5" d="M325.5,417.1l-20.2-192.8l-192.8,20.2c-14.2,1.5-24.5,14.2-23,28.4L107,440.1c1.4,14.2,14.2,24.5,28.4,23
				l167.2-17.5C316.8,444,327.1,431.3,325.5,417.1 M206.6,431.2c-14.8,0-28.8-3.6-41.2-10c-2,1.6-4.5,2.6-7.3,2.6
				c-6.3,0-11.4-5.1-11.4-11.4c0-1.3,0.2-2.5,0.6-3.6c-18.6-16.4-30.4-40.4-30.4-67.2c0-49.5,40.1-89.6,89.6-89.6
				s89.6,40.1,89.6,89.6C296.2,391.1,256.1,431.2,206.6,431.2"/>
			<path class="st5" d="M206.6,258.6c-45.9,0-83.1,37.2-83.1,83.1c0,24.6,10.7,46.7,27.7,61.9c1.9-1.5,4.4-2.4,7-2.4
				c6.3,0,11.4,5.1,11.4,11.4c0,1.1-0.2,2.2-0.5,3.3c11.3,5.7,24,9,37.6,9c45.9,0,83.1-37.2,83.1-83.1
				C289.7,295.8,252.5,258.6,206.6,258.6 M206.6,404.7c-34.8,0-63-28.2-63-63c0-34.8,28.2-63,63-63c12.4,0,24,3.6,33.7,9.8
				c1.8-1.3,4-2.1,6.4-2.1c5.8,0,10.6,4.7,10.6,10.6c0,2-0.6,3.8-1.5,5.4c8.7,10.8,13.8,24.5,13.8,39.4
				C269.6,376.5,241.4,404.7,206.6,404.7"/>
		</g>
	</g>
</g>
<g>
</g>
<g>
</g>
<g>
</g>
<g>
</g>
<g>
</g>
<g>
</g>
</svg>
